<svg width="468" height="222" viewBox="0 0 468 222" fill="none" xmlns="http://www.w3.org/2000/svg">
<path d="M123.813 18.6324C125.396 20.0743 125.014 23.1935 124.744 24.8474C124.74 24.878 124.736 24.9085 124.732 24.9391C124.67 25.3359 124.662 25.705 124.652 26.1383C124.625 27.1703 124.598 28.5828 123.648 31.4069C123.67 32.2363 123.669 33.046 123.643 33.8654C123.35 42.6781 121.19 50.7331 118.747 58.4545C118.741 58.5562 118.735 58.6598 118.729 58.7646C118.615 60.7608 118.459 63.2315 117.727 64.6903C116.797 66.5342 115.999 67.758 115.316 68.7664C115.044 69.5771 114.774 70.3759 114.504 71.1969C112.772 76.468 111.123 81.6557 109.899 86.914C109.454 88.8285 109.068 90.727 108.749 92.6544C108.457 94.4208 108.207 96.1963 107.994 97.9826C108.129 99.0589 108.329 100.104 108.514 101.067C108.775 102.42 109.004 103.629 108.982 104.589C108.93 106.904 107.968 109.375 107.253 111.208C107.136 111.508 107.025 111.791 106.926 112.053C106.86 113.592 106.806 115.138 106.755 116.684C106.621 116.764 106.481 116.845 106.338 116.926C104.55 117.941 104.297 119.522 103.892 122.021C103.718 123.098 103.511 124.367 103.141 125.821C102.9 126.766 102.196 127.142 101.62 127.45C101.451 127.54 101.292 127.629 101.16 127.721C100.708 128.039 101.053 128.517 101.462 129.077C101.993 129.798 102.627 130.687 101.765 131.54C99.012 134.278 100.269 135.901 101.217 137.146C101.495 137.512 101.747 137.841 101.864 138.151C102.245 139.152 101.481 140.366 100.572 141.234C99.9427 141.826 100.093 143.195 100.498 144.379C100.555 144.557 100.617 144.731 100.682 144.898C100.878 145.413 100.786 145.981 100.661 146.729C100.538 147.47 100.39 148.348 100.542 149.304C100.917 151.768 101.074 153.088 101.2 154.141C101.235 154.445 101.269 154.709 101.303 154.994C101.411 155.889 101.439 156.958 101.463 158.052C101.492 159.36 101.513 160.71 101.678 161.761C101.362 162.681 101.027 163.616 100.683 164.536C100.345 165.43 99.9572 166.495 99.7433 166.766C99.584 167.002 99.4032 167.468 99.2138 168.063C98.8353 169.263 97.2819 170.706 94.8886 171.414C92.4927 172.148 89.495 172.155 86.5002 171.603C83.5039 171.048 80.7075 170.024 78.6002 168.899C76.4989 167.754 75.2553 166.659 75.1667 165.284C75.1268 164.59 75.0969 163.787 75.1353 162.796C75.2751 159.963 75.2316 158.595 75.3195 156.517C75.4366 153.356 75.6785 150.195 76.2343 147.077C76.6238 144.891 77.0821 142.709 77.5934 140.544C77.6063 140.489 77.6193 140.434 77.6325 140.379C77.6723 140.213 77.713 140.045 77.7538 139.877C77.3429 137.873 76.9884 135.945 76.9806 134.581C76.9687 133.487 77.5037 132.753 77.9572 132.15C78.2693 131.735 78.5463 131.363 78.5866 130.941C78.6081 130.714 78.6168 130.397 78.6249 130.029C78.6626 128.499 78.7258 125.906 79.8518 123.715C80.3484 122.76 81.1904 121.66 81.9886 120.641C83.1345 119.157 84.1985 117.795 84.0861 116.98C83.885 115.568 84.5196 114.087 85.0796 112.783C85.6143 111.537 86.0798 110.452 85.6915 109.717C85.2262 108.845 85.583 108.23 86.1122 107.312C86.4789 106.678 86.9271 105.899 87.2439 104.787C87.6093 103.506 88.1856 102.654 88.6757 101.929C89.3653 100.908 89.8833 100.142 89.3997 98.7831C88.8616 97.2789 88.6143 95.7527 89.0471 94.6652C89.2449 94.1659 89.317 93.5703 89.391 92.9531C89.4882 92.1408 89.5937 91.2685 89.9992 90.5383C90.3332 89.9379 91.0056 89.497 91.5997 89.1118C91.7851 88.9914 91.9622 88.8759 92.1199 88.7619C92.197 88.2481 92.2693 87.7405 92.3371 87.2195C92.2568 87.1207 92.1672 87.0161 92.0748 86.9072C91.6113 86.3601 91.0418 85.6944 90.8254 84.9479C90.4855 83.7509 90.9644 82.8624 91.4769 81.8873C91.8743 81.1378 92.287 80.3649 92.3371 79.3988C92.3702 78.7466 92.2472 77.9775 92.1254 77.21C91.9418 76.088 91.7639 74.9521 92.0958 74.2593C92.2201 74.0005 92.6241 73.8167 93.026 73.6339C93.0284 73.6332 93.0308 73.6325 93.0332 73.6318C93.0604 73.6195 93.0871 73.607 93.1143 73.5946C93.1085 71.7638 93.0732 69.8967 93.0037 68.0846C93.0031 68.0834 93.0026 68.0822 93.0021 68.081C92.9312 67.9095 92.8617 67.7371 92.7934 67.5668C92.4574 66.7261 92.127 65.9335 91.5792 65.3535C90.9858 64.7216 90.7835 63.3587 90.5693 61.9047C90.4263 60.9726 90.2825 59.9725 90.0143 59.1698C89.8582 58.6963 90.2967 58.3166 90.7468 57.9368C91.1672 57.5797 91.5968 57.2241 91.5667 56.7481C91.5512 56.5122 91.4272 56.2442 91.2942 55.9599C91.1771 55.7097 91.0525 55.4463 90.9899 55.1812C90.9324 54.9316 91.2098 54.4236 91.5598 53.7859C91.7757 53.3956 92.0212 52.9367 92.2353 52.4588C92.164 51.1241 92.098 49.7796 92.0383 48.4527C91.7366 48.143 91.3302 47.8642 90.7964 47.6113C90.4131 47.4317 89.9496 47.264 89.4756 47.0928C88.8306 46.86 88.1639 46.6205 87.6423 46.3379C87.2347 46.117 87.0869 45.8956 87.279 45.7791C87.3686 45.7252 87.5298 45.6926 87.6756 45.6628C87.8426 45.6289 87.9912 45.5984 87.9931 45.5418C87.9943 45.501 87.8845 45.4466 87.7517 45.3801C87.5395 45.2739 87.2657 45.1364 87.2728 44.9735C87.2989 44.3702 87.4605 43.697 87.6159 43.0428C87.7879 42.3242 87.9533 41.6 87.9175 41.0326C87.8791 40.3797 88.3799 39.5217 88.872 38.6491C89.2148 38.0507 89.5535 37.4318 89.7081 36.9094C89.8601 36.3906 89.6562 35.8292 89.4531 35.2977C89.21 34.649 88.9689 34.0521 89.3626 33.5553C89.4425 33.4557 89.9098 33.346 90.4941 33.2061C90.9082 33.107 91.3816 32.9918 91.8186 32.8561C91.8395 32.1976 91.8734 31.5548 91.9178 30.9043C91.8553 30.8806 91.7917 30.8562 91.7268 30.8319C91.7253 30.8315 91.7238 30.8311 91.7223 30.8307C90.2565 30.2772 88.2489 29.5777 89.4417 28.5953C89.7448 28.343 90.3067 28.1785 90.8123 28.028C91.3088 27.8799 91.7528 27.7471 91.8428 27.5585C91.9448 27.3452 91.6327 27.1033 91.2921 26.8457C90.814 26.4841 90.2773 26.0889 90.7454 25.6542C90.7774 25.6244 90.8124 25.5923 90.8475 25.5589C91.18 25.2432 91.6693 24.77 92.6709 24.2589C92.8662 22.9012 93.0751 21.5399 93.2764 20.1626C93.3826 19.4354 93.4869 18.705 93.5858 17.9673C93.7951 16.3452 93.9938 14.7494 94.1611 13.437C94.2805 12.4908 95.4803 11.6522 97.451 10.557C99.4633 9.5119 101.679 7.59602 104.132 5.89496C106.563 4.18459 109.516 3.23423 112.338 4.03514C115.121 4.77544 117.053 6.41275 117.755 8.02389C118.742 10.3096 119.512 12.2971 120.224 14.2694C120.339 14.5924 120.451 14.916 120.562 15.2404C120.64 15.3583 120.715 15.4772 120.787 15.5963C121.32 16.4819 122.253 17.2641 123.18 18.0713C123.393 18.2566 123.606 18.4434 123.813 18.6324ZM18.0343 29.649C19.2522 27.9234 22.2853 27.8788 23.9756 27.8516C24.0056 27.8507 24.0356 27.8497 24.0656 27.8488C24.4561 27.8443 24.8201 27.788 25.2546 27.7187C26.2878 27.5542 27.6416 27.3409 30.6837 27.6388C31.498 27.4345 32.298 27.2492 33.1458 27.0728C34.2227 26.8487 35.2582 26.6511 36.3737 26.4531C44.2554 25.0629 52.3024 24.5058 60.397 24.1353C60.5092 24.1049 60.6234 24.0738 60.739 24.0424C62.9244 23.4457 65.6905 22.6961 67.5133 22.8592C69.8827 23.0559 71.4756 23.3622 72.826 23.6315C80.14 23.3204 87.4132 22.9012 94.566 21.9001C96.7981 21.5882 99.0486 21.2121 101.255 20.7714C103.316 20.3599 105.322 19.9135 107.36 19.4206C108.503 18.8751 109.545 18.2904 110.527 17.7454C111.9 16.9809 113.157 16.2949 114.198 15.946C116.73 15.1004 119.812 15.0321 122.082 14.9863C122.454 14.9784 122.807 14.9711 123.132 14.9607C124.86 14.4202 126.537 13.8763 128.255 13.32C128.395 13.4137 128.537 13.5123 128.681 13.6135C130.498 14.8743 132.292 14.5004 135.193 13.9013C136.45 13.6416 137.89 13.345 139.633 13.1208C140.755 12.9767 141.451 13.482 142.008 13.8966C142.173 14.0183 142.328 14.132 142.478 14.2188C142.996 14.5162 143.381 14.0102 143.838 13.4125C144.43 12.6371 145.142 11.7056 146.418 12.1726C150.463 13.6651 151.771 11.8639 152.766 10.4999C153.054 10.1005 153.316 9.73942 153.612 9.50972C154.57 8.76511 156.192 9.00382 157.486 9.51284C158.517 9.91533 160.214 8.9897 161.455 7.99005C161.924 7.61218 162.63 7.46858 163.463 7.30083C164.33 7.12647 165.315 6.9298 166.321 6.41368C168.861 5.10994 170.23 4.45231 171.316 3.92778C171.627 3.77801 171.917 3.64029 172.207 3.49923C173.121 3.05346 174.278 2.60876 175.453 2.15902C176.853 1.62209 178.272 1.07762 179.327 0.511719C182.315 0.32616 185.292 0.235602 188.293 0.141087C189.827 0.0964072 191.514 1.16721 192.99 3.18035C194.465 5.19528 195.606 7.97131 196.172 10.9647C196.739 13.9581 196.693 16.9586 196.059 19.3734C195.424 21.7865 194.252 23.4021 192.812 23.9226C189.897 24.9688 187.005 26.0128 184.07 26.966C180.513 28.1238 176.918 29.1426 173.269 29.845C170.711 30.3372 168.152 30.7569 165.569 31.1233C165.304 31.1609 165.038 31.1971 164.773 31.2335C162.784 32.3824 160.754 33.4709 159.299 34.0011C158.095 34.4393 157.116 34.2217 156.268 34.0377C155.686 33.9108 155.172 33.7983 154.699 33.9241C154.445 33.9917 154.103 34.1055 153.69 34.2424C152.016 34.7996 149.13 35.7548 146.324 35.5575C145.078 35.4701 143.559 35.115 142.126 34.7728C140.081 34.2829 138.158 33.83 137.317 34.2502C135.837 34.9889 133.998 34.9711 132.34 34.9619C130.767 34.9511 129.402 34.9406 128.756 35.5854C127.98 36.3568 127.157 36.2671 125.951 36.1321C125.113 36.0388 124.091 35.9248 122.759 36.0612C121.203 36.2222 120.048 36.0178 119.069 35.8436C117.695 35.5975 116.65 35.415 115.342 36.3919C113.889 37.4774 112.342 38.2923 110.96 38.3157C110.336 38.3252 109.655 38.4888 108.949 38.6586C108.015 38.8836 107.041 39.1178 106.068 39.0261C105.271 38.9494 104.537 38.4929 103.889 38.0886C103.687 37.9625 103.493 37.8423 103.309 37.7394C102.716 37.8656 102.134 37.9932 101.538 38.1302C101.46 38.243 101.378 38.3668 101.293 38.4948C100.865 39.1372 100.34 39.9251 99.5984 40.414C98.422 41.1881 97.2587 41.084 95.9885 40.9809C95.0084 40.8989 93.9938 40.8117 92.9244 41.1309C92.2055 41.3465 91.3752 41.76 90.5783 42.1647C89.3849 42.7676 88.2413 43.3551 87.3248 43.3128C86.9822 43.2968 86.6292 42.9891 86.2801 42.6826C86.2784 42.6806 86.2767 42.6786 86.2751 42.6767C86.2514 42.6559 86.2277 42.6357 86.204 42.615C84.1597 43.3159 82.1237 44.0455 80.0923 44.7918C79.9304 44.922 79.7666 45.0511 79.6046 45.1785C78.8241 45.7986 78.0219 46.41 77.5838 47.1362C77.095 47.9261 75.6774 48.6152 74.1196 49.3552C73.1048 49.8386 72.0704 50.3353 71.2645 50.8826C70.7929 51.2025 70.2032 50.932 69.614 50.6492C69.0619 50.3859 68.4975 50.1152 67.9855 50.3149C67.729 50.415 67.4745 50.6286 67.2042 50.8567C66.9678 51.0572 66.7127 51.2706 66.4257 51.428C66.1606 51.5736 65.4893 51.4978 64.6404 51.4005C64.1158 51.3403 63.5234 51.2724 62.9153 51.2412C61.3809 51.7982 59.9109 52.3325 58.3849 52.8623C58.1244 53.2582 57.9292 53.7428 57.8184 54.3363C57.739 54.7621 57.6994 55.2597 57.6586 55.7684C57.6032 56.4607 57.5462 57.1761 57.3885 57.7696C57.2652 58.2333 57.0536 58.4515 56.8531 58.3106C56.7597 58.2449 56.6693 58.1034 56.5874 57.9755C56.4935 57.8291 56.4105 57.6987 56.3441 57.7166C56.2947 57.73 56.2658 57.8534 56.2299 58.0028C56.1726 58.2415 56.0977 58.5499 55.8988 58.6011C55.1587 58.7919 54.302 58.8743 53.477 58.9515C52.5638 59.0366 51.6119 59.1328 50.9308 59.3607C50.1701 59.6156 48.9356 59.4344 47.7121 59.2526C46.8635 59.1247 46.0302 58.9954 45.3046 59.0218C44.6059 59.0452 43.9648 59.4192 43.3579 59.7804C43.3367 59.793 43.3155 59.8056 43.2944 59.8182C42.5434 60.2471 41.8408 60.6395 41.1375 60.4144C40.9909 60.3672 40.7344 59.9478 40.4144 59.423C40.1926 59.0499 39.9154 58.6283 39.6317 58.2456C38.7686 58.4251 37.9533 58.5756 37.1062 58.7164C37.0887 58.7842 37.0706 58.8533 37.0527 58.9237C37.0525 58.9252 37.0523 58.9268 37.0521 58.9284C36.6319 60.5205 36.1661 62.6757 34.5577 61.7848C34.1556 61.5568 33.8298 61.0486 33.5367 60.5912C33.2492 60.142 32.9928 59.7397 32.7351 59.698C32.4509 59.649 32.1574 60.0236 31.8687 60.4246C31.452 60.99 31.0285 61.6131 30.3558 61.2578C30.3094 61.2336 30.2595 61.2069 30.208 61.1805C29.7186 60.93 29.0068 60.5572 28.2131 59.6723C26.3465 59.7862 24.5163 59.8466 22.6794 59.8818C19.5764 59.9505 16.4777 59.9386 13.5059 59.9415C12.0684 59.937 10.3784 58.9111 9.34756 56.8881C9.23656 56.6356 9.15031 56.3672 9.12393 56.0633C9.08007 55.7687 9.18144 55.3879 9.09582 55.0802C8.93577 54.6111 8.79305 54.1711 8.9032 53.3626C8.93245 52.9375 9.23802 52.36 9.14488 51.1013C9.08228 50.4933 8.77194 49.9013 8.46992 49.6351C8.16627 49.3543 7.90839 49.2959 7.72005 49.2972C6.99951 49.3902 6.86553 50.0108 6.60895 50.4864C6.37931 50.992 6.14819 51.5043 5.8878 52.0058C5.62595 52.5063 5.36515 53.004 5.03241 53.4549C4.86297 53.6783 4.67392 53.8909 4.40477 54.0478C4.12933 54.1919 3.79255 54.3356 3.14234 54.1012C2.81924 53.971 2.38177 53.7291 1.89806 53.1137C1.41536 52.5234 0.96341 51.3911 0.957172 50.2997C1.00399 48.0478 1.72697 47.1373 1.97572 46.4594C2.56016 45.1956 2.74145 44.5909 2.94048 43.9148C3.40934 42.9447 4.05178 42.094 4.3236 41.4308C5.48904 38.7165 6.49577 37.0649 8.02271 36.3635C10.3927 35.2702 12.6674 34.23 14.9776 33.2283C15.0927 33.1399 15.2117 33.0527 15.3293 32.9697C16.1444 32.3649 16.86 31.3506 17.5457 30.3424C17.7049 30.1104 17.8817 29.8743 18.0343 29.649ZM47.5457 120.538C48.0036 120.091 48.614 119.727 49.3304 119.424C51.5316 118.475 54.5938 118.206 56.5165 118.03C56.5611 118.026 56.6058 118.021 56.6505 118.017C57.231 117.966 57.7753 117.865 58.4219 117.743C59.9573 117.453 62.0122 117.066 66.5062 116.99C67.764 116.673 68.9827 116.379 70.2456 116.093C83.738 113.043 97.5191 111.11 111.377 109.426C111.547 109.38 111.719 109.333 111.893 109.286C115.26 108.37 119.425 107.24 122.195 107.151C125.718 107.038 128.132 107.128 130.135 107.225C135.435 106.604 140.758 105.957 146.034 105.265C151.834 104.498 157.529 103.698 163.36 102.825C166.862 102.304 170.373 101.761 174.003 101.234C177.325 100.762 180.717 100.285 184.534 100.065C186.784 99.6867 189.104 99.3468 191.781 99.4211C195.134 99.4207 199.236 100.764 201.169 101.774C202.79 102.692 204.104 103.942 205.001 105.114C207.823 109.125 207.63 111.247 207.886 112.807C208.011 114.36 207.938 115.415 207.854 116.358C207.665 118.231 207.342 119.592 206.999 120.875C206.304 123.402 205.485 125.423 204.782 127.145C204.553 127.702 204.332 128.23 204.135 128.701C203.493 131.505 202.843 134.21 202.196 136.896C202.026 137.033 201.851 137.17 201.672 137.31C200.796 137.992 200.133 138.816 199.563 139.835C198.575 141.728 197.737 144.011 196.525 146.81C195.658 148.807 194.606 151.048 193.186 153.532C192.269 155.134 191.264 155.652 190.451 156.069C190.211 156.192 189.987 156.308 189.784 156.438C189.094 156.878 189.089 157.751 189.081 158.775C189.068 160.105 189.031 161.723 187.489 162.937C182.571 166.785 182.495 169.66 182.424 171.918C182.404 172.573 182.382 173.17 182.239 173.702C181.78 175.425 180.002 177.147 178.378 178.247C177.093 179.118 175.988 181.828 175.39 184.044C175.165 184.883 174.549 185.805 173.821 186.889C173.104 187.957 172.277 189.181 171.612 190.642C171.526 190.808 171.152 191.231 171.053 191.39C171.014 191.459 170.976 191.528 170.938 191.597C168.904 195.36 167.802 197.321 166.9 198.914C166.65 199.359 166.4 199.792 166.167 200.209C165.416 201.546 164.401 203.128 163.362 204.736C162.117 206.664 160.852 208.613 159.989 210.207C156.74 213.501 153.428 216.73 149.692 220.108C149.09 220.648 148.403 221.111 147.643 221.488L147.918 221.194C146.656 221.644 145.155 221.688 143.354 221.485C140.745 221.191 137.769 220.316 135.309 218.513C132.855 216.716 130.934 214.318 130.265 211.47C129.806 209.507 130.041 207.426 130.795 205.658C130.845 205.614 130.971 205.456 131.023 205.414C131.227 204.794 131.52 204.215 131.905 203.687C134.417 200.241 137.001 196.411 139.641 192.645C142.861 188.041 146.192 183.455 149.781 179.057C150.593 178.062 151.411 177.07 152.247 176.068L151.584 176.955C153.114 174.771 154.66 172.608 156.212 170.464C156.449 170.136 156.688 169.808 156.924 169.482C158.137 166.334 159.362 163.242 160.399 161.201C161.255 159.517 162.325 158.587 163.241 157.785C163.867 157.239 164.427 156.742 164.775 156.122C164.963 155.789 165.205 155.314 165.487 154.752C166.653 152.443 168.555 148.547 171.03 145.55C172.133 144.218 173.611 142.791 174.972 141.41C176.924 139.439 178.615 137.553 178.813 136.367C178.992 135.324 179.349 134.31 179.745 133.352C180.228 132.133 180.799 130.95 181.33 129.846C182.348 127.73 183.215 125.905 183.066 124.675C182.886 123.21 183.457 122.197 184.265 120.72C184.819 119.705 185.506 118.425 186.006 116.812C186.594 115.034 187.026 113.751 187.398 114.424C187.514 114.642 187.606 114.991 188.011 115.821C188.39 116.584 189.328 118.084 191.105 119.048C190.466 118.431 190.116 118.258 189.45 118.557C188.414 119.058 186.635 119.471 184.963 119.296C184.22 119.21 183.286 119.297 182.341 119.41C181.063 119.561 179.643 119.766 178.32 119.659C177.181 119.577 176.234 119.119 175.335 118.726C175.065 118.602 174.802 118.485 174.545 118.386C173.636 118.536 172.8 118.684 171.887 118.856C171.754 118.975 171.618 119.105 171.485 119.238C170.818 119.906 169.905 120.745 168.798 121.286C166.958 122.158 165.239 122.15 163.407 122.151C161.935 122.162 160.47 122.165 158.835 122.605C157.738 122.901 156.462 123.413 155.263 123.91C153.458 124.642 151.798 125.345 150.413 125.463C150.368 125.466 150.323 125.469 150.279 125.471C149.782 125.493 149.285 125.221 148.789 124.951C148.787 124.949 148.784 124.948 148.782 124.946C148.748 124.928 148.714 124.91 148.681 124.892C145.56 125.861 142.443 126.87 139.324 127.901C139.071 128.055 138.814 128.209 138.558 128.361C137.291 129.107 136.094 129.825 135.367 130.628C134.577 131.499 132.332 132.406 129.977 133.362C128.41 133.994 126.83 134.638 125.545 135.314C124.803 135.707 123.966 135.504 123.1 135.295C122.287 135.102 121.473 134.899 120.679 135.175C120.282 135.313 119.877 135.567 119.443 135.839C119.062 136.078 118.664 136.331 118.229 136.529C117.826 136.713 116.829 136.725 115.559 136.742C114.775 136.752 113.882 136.765 112.952 136.82C110.645 137.589 108.33 138.351 106.013 139.096C105.594 139.536 105.263 140.058 105.048 140.68C104.894 141.127 104.794 141.641 104.69 142.168C104.549 142.884 104.403 143.624 104.113 144.254C103.886 144.746 103.543 145 103.248 144.884C103.111 144.83 102.984 144.698 102.87 144.579C102.739 144.442 102.622 144.321 102.519 144.348C102.446 144.369 102.393 144.498 102.329 144.656C102.226 144.907 102.091 145.232 101.792 145.311C100.68 145.603 99.3762 145.806 98.1079 146.002C96.696 146.22 95.3078 146.436 94.2488 146.765C93.0463 147.137 91.2378 147.111 89.3976 147.092C88.1237 147.077 86.8462 147.065 85.7774 147.183C84.736 147.298 83.7245 147.769 82.7455 148.228C81.5804 148.775 80.4413 149.307 79.3523 149.17C79.1321 149.142 78.7776 148.747 78.3346 148.254C78.022 147.904 77.6575 147.505 77.2639 147.151C75.9658 147.444 74.7003 147.71 73.3913 147.969C73.3598 148.04 73.3271 148.113 73.2946 148.187C73.2942 148.189 73.2938 148.191 73.2934 148.192C72.5733 149.864 71.545 152.16 69.2642 151.44C68.6734 151.259 68.2239 150.781 67.8198 150.351C67.4231 149.929 67.0695 149.551 66.6767 149.542C66.2398 149.531 65.7792 149.947 65.3011 150.395C64.624 151.025 63.8936 151.723 62.9007 151.444C62.8339 151.425 62.7619 151.404 62.6874 151.383C61.9806 151.185 60.9527 150.888 59.7867 150.09C58.5764 150.234 57.2957 150.382 56.0937 150.503C54.4756 150.675 52.8943 150.825 51.3219 150.961C46.5744 151.381 41.8814 151.698 37.0079 151.98C34.6344 152.11 32.1352 151.153 29.9407 149.207C28.8521 148.227 27.8844 147.054 27.0711 145.679C26.6581 144.938 26.225 144.418 25.7533 143.067C25.6904 142.736 25.7983 142.344 25.9941 142.243C26.1813 142.123 26.3814 142.136 26.5586 142.183C26.9178 142.28 27.2373 142.48 27.5695 142.649C27.9024 142.813 28.24 142.998 28.6636 142.92C28.8664 142.886 29.1349 142.725 29.3284 142.274C29.5554 141.866 29.454 140.782 29.0867 140.15C28.6482 139.407 28.3351 139.098 28.0372 138.78C27.8024 138.501 27.6398 138.287 27.5071 138.085C27.2877 137.691 27.174 137.343 27.1024 136.997C26.8762 135.628 27.1504 134.329 27.5932 133.124C28.5236 130.719 30.2564 128.971 32.3394 128.227C35.7167 127.022 39.2422 125.738 42.6846 124.505C42.8597 124.405 43.0378 124.305 43.2178 124.209C44.5179 123.503 45.6448 122.4 46.7671 121.295C47.0293 121.041 47.2979 120.784 47.5457 120.538ZM252.468 122.067C254.164 121.686 256.485 121.957 258.644 122.4C259.723 122.621 260.769 122.885 261.598 123.112C262.002 123.224 262.367 123.328 262.573 123.403C262.671 123.44 262.738 123.47 262.711 123.489C262.676 123.508 262.596 123.513 262.17 123.51C262.087 123.51 261.993 123.509 261.882 123.51C261.644 123.505 261.405 123.506 261.165 123.511C256.365 123.552 252.116 126.084 250.264 127.933C248.273 129.848 247.555 131.268 247.03 132.327C246.525 133.415 246.317 134.185 246.181 134.877C246.568 133.476 247.227 131.102 248.643 126.807C248.874 125.159 249.114 123.494 249.372 121.813C251.209 110.188 253.066 98.6484 257.102 85.5378C259.087 79.6809 260.854 73.5018 262.418 67.2255C262.447 67.0028 262.476 66.78 262.505 66.5547C263.073 62.1727 263.6 56.7041 264.497 53.3102C265.019 51.351 265.481 49.6728 265.901 48.189C266.37 46.7734 266.723 45.6617 267.003 44.7295C267.294 42.4542 266.95 40.75 267.243 40.9165C267.692 41.4316 268.309 41.6772 268.252 41.5083C268.224 41.3613 267.647 41.0146 266.794 40.7417C265.06 40.1698 262.415 39.8301 259.67 39.7066L260.482 39.6636C256.325 39.7673 251.732 40.5131 247.028 41.4551C242.642 42.3421 238.238 43.4043 233.802 44.5897C229.747 45.6744 225.687 46.8457 221.631 48.0778C219.335 49.0491 217.202 50.0428 215.183 50.9796C212.582 52.1943 210.249 53.2905 208.183 54.0654C208.037 54.1206 207.892 54.174 207.749 54.2256C202.615 56.0732 196.536 57.2969 192.017 58.2096C191.282 58.3576 190.584 58.4984 189.937 58.633C186.501 59.8438 183.05 61.0751 179.619 62.307C179.353 62.2613 179.082 62.2114 178.807 62.1598C175.358 61.5191 171.715 62.6124 165.943 64.3469C163.419 65.1053 160.51 65.9794 157.057 66.8813C154.822 67.4657 153.503 67.1999 152.436 66.9802C152.121 66.916 151.825 66.8563 151.534 66.8237C150.538 66.7108 149.697 67.4009 148.748 68.2031C147.516 69.2439 145.98 70.5111 143.528 70.5064C135.64 70.5144 132.898 72.9172 130.797 74.7423C130.174 75.2796 129.631 75.7591 129.025 76.1166C127.057 77.2754 123.861 77.6624 121.355 77.633C119.338 77.6182 115.899 79.2581 113.347 80.8009C112.39 81.3816 110.984 81.8102 109.308 82.3192C107.599 82.8385 105.624 83.4374 103.563 84.386C98.4399 86.758 95.6858 87.991 93.4686 88.9815C92.8334 89.2648 92.2439 89.5262 91.6658 89.7878C89.8418 90.6136 87.4633 91.5579 85.1389 92.4885C82.3263 93.6115 79.4563 94.7569 77.3303 95.7721C71.4209 97.1597 65.4998 98.46 59.5687 99.7672C56.5276 100.434 53.2649 99.995 50.5172 98.474C47.7584 96.9545 45.707 94.5049 44.8234 91.5893C43.9383 88.6741 44.2838 85.4975 45.736 82.7014C47.1782 79.9103 49.6512 77.7308 52.5552 76.5983C58.4224 74.3169 64.2671 72.045 70.1731 69.8607C77.3508 67.205 84.5693 64.6942 91.8839 62.4973C96.9968 60.9617 102.152 59.4919 107.296 58.0885C107.817 57.9466 108.363 57.7988 108.895 57.6548C112.986 55.6477 117.064 53.718 120.042 52.5758C122.478 51.6396 124.417 51.4794 126.077 51.3421C127.222 51.247 128.204 51.1722 129.173 50.8491C129.688 50.6772 130.383 50.4219 131.217 50.1159C134.613 48.8687 140.412 46.7436 146.004 45.8503C148.462 45.4609 151.436 45.248 154.262 45.0499C158.288 44.771 162.042 44.513 163.774 43.7414C166.767 42.4004 170.472 41.6974 173.745 41.0787C176.862 40.4899 179.576 39.9792 180.951 39.0469C182.57 37.9399 184.194 37.7213 186.564 37.4086C188.23 37.1854 190.231 36.9225 192.929 36.2638C196.007 35.5142 198.279 35.2937 200.228 35.1016C201.066 35.0198 201.836 34.9456 202.577 34.8385C204.321 34.5756 205.803 34.1802 207.729 33.117C210.727 31.438 213.987 29.9912 216.728 29.4761C217.96 29.2459 219.374 28.8212 220.794 28.397C222.72 27.8226 224.738 27.2276 226.646 27.0016C228.253 26.806 229.663 27.0412 230.909 27.2528C231.288 27.3212 231.672 27.3812 232.037 27.4269C233.252 27.0995 234.49 26.7666 235.687 26.4425C235.868 26.2982 236.054 26.1419 236.247 25.9806C237.202 25.1749 238.371 24.19 240.006 23.4498C242.539 22.2931 245.032 22.058 247.645 21.8722C249.707 21.725 251.86 21.5953 254.375 21.1173C255.695 20.8667 257.199 20.5246 258.687 20.2099C258.83 20.2099 259.257 20.1609 259.399 20.1721C259.858 20.1127 260.304 20.0548 260.771 20.001C263.73 19.6435 266.938 19.5137 269.281 20.1211C270.159 20.345 270.865 20.861 271.564 21.4009C271.567 21.4039 271.57 21.4069 271.573 21.4099C271.62 21.4464 271.667 21.4825 271.713 21.5192C275.554 22.2423 281.208 24.0543 285.01 29.5573C286.557 31.787 287.522 34.0852 288.179 36.216C288.417 36.7599 288.636 37.3157 288.834 37.8511C289.802 40.493 290.336 42.8928 290.982 44.4409C291.471 45.607 291.766 47.9832 291.809 50.6369C291.846 51.6455 291.867 52.7118 291.882 53.8014C291.915 56.1271 291.919 58.537 292.048 60.5305C292.124 61.6955 291.603 62.73 291.062 63.7824C290.557 64.7694 290.033 65.7783 289.956 66.9436C289.916 67.5382 289.98 68.178 290.044 68.8795C290.1 69.4944 290.159 70.1384 290.149 70.8108C290.141 71.4241 289.715 72.7568 289.15 74.4403C288.802 75.4803 288.398 76.6694 288.008 77.9111C287.602 81.3243 287.111 84.7595 286.512 88.1937C286.669 88.9827 286.942 89.6983 287.363 90.3237C287.666 90.7648 288.053 91.1924 288.451 91.6192C288.992 92.1985 289.546 92.8157 289.918 93.5632C290.048 93.8278 290.123 94.0948 290.142 94.3367C290.188 94.5475 290.147 94.7332 290.014 94.8569C289.901 94.9615 289.724 95.0212 289.564 95.0769C289.381 95.1401 289.216 95.2017 289.193 95.3122C289.176 95.3934 289.267 95.5053 289.377 95.6429C289.552 95.8633 289.778 96.1481 289.706 96.4951C289.447 97.7593 289.03 99.2533 288.634 100.769C288.193 102.453 287.779 104.153 287.617 105.55C287.434 107.115 286.631 109.28 285.841 111.494C285.289 113.037 284.744 114.6 284.408 115.968C284.079 117.311 284.095 118.769 284.111 120.191C284.132 121.893 284.151 123.553 283.572 124.87C283.454 125.139 282.944 125.417 282.305 125.763C281.853 126.005 281.334 126.295 280.845 126.635C280.574 128.399 280.281 130.166 279.956 131.966C280.008 132.039 280.06 132.114 280.114 132.189C280.116 132.19 280.117 132.192 280.118 132.193C281.327 133.923 282.996 136.268 281.235 139.145C280.79 139.856 280.13 140.28 279.542 140.624C278.965 140.959 278.437 141.307 278.217 141.873C278.211 141.888 278.205 141.903 278.2 141.919C277.705 143.561 277.613 145.529 275.936 148.879C275.171 150.292 274.079 152.067 271.705 154C269.437 155.914 265.155 157.794 260.956 157.653C259.013 157.642 258.411 157.478 257.649 157.178C257.533 157.128 257.411 157.072 257.283 157.016C256.14 156.49 254.811 155.722 253.674 154.45C249.809 153.407 246.272 152.316 242.698 151.229C240.291 150.494 237.902 149.76 235.523 149.043C232.034 147.993 228.499 146.957 224.962 145.953C222.066 145.127 219.472 143.288 217.732 140.755C215.998 138.217 215.231 135.214 215.583 132.246C215.921 129.275 217.612 126.571 220.158 124.683C222.706 122.797 225.892 121.89 229.019 122.088C232.838 122.336 236.647 122.613 240.491 122.958C241.784 123.074 243.072 123.198 244.353 123.327C244.627 123.318 244.901 123.312 245.176 123.309C247.204 123.288 249.173 122.833 251.121 122.376C251.575 122.272 252.014 122.165 252.468 122.067ZM328.984 40.5547C326.365 40.7886 322.91 38.5063 320.946 37.2826C321.131 37.3595 321.322 37.4346 321.517 37.5072C321.735 37.5886 321.943 37.6616 322.199 37.7447C324.941 38.9619 332.562 38.9296 336.77 35.4999C339.834 33.2347 340.887 31.139 341.462 29.9062C342.011 28.6075 342.056 28.0202 342.064 27.3089C342.069 26.7769 341.934 26.9537 341.801 27.2926C341.664 27.6465 341.502 28.2262 341.319 28.9502C341.338 30.0711 341.359 31.3381 341.363 32.6296C341.391 37.7028 341.252 43.1668 340.825 48.5906C340.009 58.2847 338.701 66.9718 337.529 76.0106C337.531 76.1885 337.533 76.37 337.535 76.554C337.576 80.0797 337.664 84.4408 337.101 87.1721C337.074 87.3023 337.048 87.4313 337.021 87.5589C336.305 91.6598 335.44 94.1377 334.716 96.2028C332.19 108.476 328.511 119.497 325.796 130.387C325.715 130.712 325.636 131.032 325.56 131.346C325.682 130.476 326.119 128.8 324.894 125.926C323.601 122.944 320.618 121.373 319.473 121.086C318.162 120.693 317.586 120.732 317.215 120.718C316.84 120.721 316.694 120.747 316.613 120.76C316.356 120.823 316.938 120.737 317.459 120.598C318.591 120.311 320.051 119.833 321.509 119.328C322.948 118.829 324.434 118.29 325.955 117.741L325.725 117.824C327.267 117.22 328.858 116.576 330.461 115.925C332.154 114.953 333.773 113.956 335.259 113.046C337.361 111.762 339.24 110.634 340.866 109.911C344.787 108.165 349.533 107.111 353.066 106.353C353.633 106.233 354.177 106.116 354.686 106.004C357.327 104.925 359.956 103.851 362.596 102.781C362.81 102.838 363.027 102.898 363.249 102.961C364.562 103.324 365.861 103.321 367.369 103.057C369.03 102.772 370.956 102.155 373.303 101.411C375.251 100.794 377.476 100.094 380.162 99.3935C381.885 98.9451 382.949 99.2802 383.809 99.556C384.063 99.6367 384.301 99.7119 384.535 99.7604C385.342 99.9244 385.928 99.3053 386.637 98.5697C387.566 97.6125 388.65 96.4733 390.618 96.616C396.83 97.0893 398.875 94.9001 400.396 93.249C400.846 92.7638 401.256 92.3244 401.718 92.0108C403.195 91.0008 405.695 90.828 407.679 91.02C409.246 91.1741 411.884 89.7857 413.808 88.4431C414.534 87.9358 415.613 87.6117 416.9 87.2272C418.219 86.8331 419.763 86.3742 421.309 85.5922C425.238 83.6098 427.329 82.5966 429.018 81.7809C429.501 81.548 429.949 81.3336 430.394 81.1164C431.804 80.4291 433.589 79.6818 435.395 78.9264C437.555 78.0231 439.75 77.106 441.374 76.2618C445.953 75.3262 450.555 74.4789 455.156 73.6318C457.523 73.1983 460.103 73.873 462.354 75.5662C464.531 77.2067 466.223 79.6559 467.098 82.464L467.087 82.4672C467.117 82.5607 467.146 82.6546 467.175 82.7489C467.203 82.8434 467.23 82.9381 467.256 83.0329C468.024 85.8721 467.904 88.846 466.941 91.3962C465.945 94.0303 464.126 95.9825 461.896 96.8817C457.407 98.6866 452.918 100.492 448.404 102.205C442.908 104.29 437.37 106.239 431.747 107.881C427.814 109.03 423.863 110.111 419.898 111.14C419.489 111.247 419.08 111.352 418.672 111.456C415.58 113.148 412.496 114.77 410.239 115.692C408.397 116.447 406.869 116.483 405.589 116.507C404.695 116.527 403.908 116.544 403.187 116.793C402.803 116.926 402.27 117.134 401.635 117.381C399.05 118.39 394.654 120.11 390.343 120.654C388.448 120.89 386.133 120.926 383.943 120.959C380.8 121.009 377.896 121.059 376.608 121.724C375.706 122.195 374.65 122.572 373.617 122.861C372.09 123.291 370.513 123.574 369.055 123.838C366.676 124.27 364.588 124.661 363.621 125.512C362.453 126.533 361.225 126.677 359.406 126.898C358.137 127.053 356.587 127.246 354.579 127.798C352.254 128.439 350.516 128.595 349.026 128.734C346.938 128.929 345.371 129.08 343.464 130.52C341.357 132.115 339.056 133.503 337.015 134.01C336.085 134.24 335.073 134.654 334.004 135.09C333.504 135.294 332.971 135.511 332.445 135.708C332.398 135.719 332.265 135.779 332.218 135.79C331.304 136.105 330.362 136.385 329.414 136.527C328.196 136.709 327.031 136.489 325.986 136.291C325.662 136.229 325.344 136.171 325.044 136.126C324.077 136.455 323.069 136.792 321.944 137.122C321.783 137.265 321.607 137.422 321.424 137.581C320.934 137.986 320.381 138.44 319.446 138.875C318.986 139.087 318.393 139.309 317.496 139.456C316.506 139.495 315.453 140.031 312.026 138.567C310.196 137.817 307.572 135.11 306.929 132.575C306.197 130.017 306.482 128.562 306.653 127.444C306.784 125.751 307.374 124.312 307.99 122.823C308.569 121.426 309.172 119.983 309.437 118.246C309.617 117.064 309.662 115.682 309.699 114.326C309.755 112.307 309.793 110.332 310.268 109.052C310.446 108.572 310.892 108.217 311.335 107.864C311.338 107.863 311.34 107.861 311.343 107.86C311.373 107.836 311.402 107.812 311.432 107.788C311.764 104.513 312.009 101.262 312.129 98.0755C312.073 97.791 312.018 97.5041 311.963 97.2197C311.695 95.8381 311.407 94.513 310.871 93.6412C310.293 92.6904 310.123 90.4557 309.786 88.3317C309.722 87.9337 309.654 87.526 309.577 87.1488C309.394 85.9055 309.196 84.6953 308.95 83.6523C308.747 82.785 309.147 81.986 309.561 81.1564C309.947 80.3922 310.344 79.5925 310.273 78.7206C310.238 78.2787 310.092 77.8035 309.937 77.2967C309.8 76.8448 309.655 76.3702 309.573 75.8795C309.497 75.4158 309.736 74.4082 310.043 73.113C310.234 72.312 310.45 71.4078 310.636 70.4513C310.488 67.9167 310.36 65.3699 310.255 62.8373C309.943 62.2954 309.527 61.825 308.984 61.4357C308.595 61.1585 308.125 60.9189 307.646 60.673C306.993 60.3315 306.318 59.9801 305.788 59.521C305.375 59.1582 305.222 58.7413 305.412 58.4814C305.501 58.3596 305.662 58.2723 305.807 58.1883C305.974 58.0935 306.122 58.0091 306.123 57.8986C306.124 57.819 306.012 57.7313 305.878 57.6239C305.663 57.4509 305.386 57.2369 305.39 56.9099C305.406 55.7216 305.559 54.3807 305.706 53.0819C305.871 51.6339 306.027 50.2434 305.981 49.1642C305.96 48.6934 306.022 48.1381 306.131 47.5763C306.3 46.6525 306.584 45.6189 306.861 44.5759C307.18 43.3756 307.489 42.1631 307.618 41.1149C307.744 40.0878 307.511 39.0117 307.28 37.9629C307.003 36.7014 306.731 35.4756 307.1 34.4122C307.175 34.1957 307.637 33.9324 308.215 33.5875C308.624 33.3463 309.092 33.0702 309.523 32.7493C309.519 31.3712 309.533 29.9665 309.589 28.4141C309.527 28.359 309.464 28.3022 309.4 28.2453C309.398 28.2444 309.397 28.2435 309.395 28.2426C308.17 26.9162 306.27 26.0375 307.283 21.6405C307.45 20.9802 307.678 20.34 307.987 19.6772C308.642 18.2877 309.524 17.4669 310.365 16.7156C311.213 15.9633 311.96 15.3216 312.944 13.8849C314.136 12.346 315.457 9.31464 320.507 6.5657C325.366 3.87008 332.067 4.61406 334.966 6.0764C335.272 6.19184 335.551 6.37424 335.784 6.65567C335.832 6.71422 335.884 6.77789 335.938 6.84284C336.453 7.45889 337.208 8.37353 337.711 9.75418C340.4 11.3386 342.985 13.0064 345.49 14.7141C349.661 17.5548 353.63 20.5322 357.407 23.3152C359.253 24.6766 360.412 26.8511 360.796 29.5181C361.152 32.1787 360.846 35.1691 359.712 37.9365C358.598 40.7075 356.478 42.9725 353.814 44.1955C351.145 45.4154 348.299 45.5249 345.989 44.66C342.232 43.2479 338.673 41.8805 335.188 40.5757C334.989 40.5399 334.79 40.5018 334.593 40.4609C333.132 40.158 331.577 40.2928 330.039 40.4484C329.688 40.4848 329.335 40.522 328.984 40.5547Z" fill="white"/>
</svg>
